<?xml version="1.0" ?><svg id="Layer_1" style="enable-background:new 0 0 52 52;" version="1.1" viewBox="0 0 52 52" xml:space="preserve" xmlns="http://www.w3.org/2000/svg" xmlns:xlink="http://www.w3.org/1999/xlink"><style type="text/css">
	.st0{fill:#231F20;}
</style><g><g><path class="st0" d="M6.3130527,3.0969553c12.1100197-0.0338311,24.2200127,0.0079672,36.3293991,0.1387389    c1.3159027,0.0142107,4.5168304-0.308429,5.5194092,0.9180014c0.5657692,0.6920977-0.0330544,3.9448733-0.0401306,4.7895446    c-0.0240784,2.8737268-0.0481567,5.7474537-0.0722351,8.6211805c-0.0374146,4.4655666,1.9632378,17.3355579-3.5636749,18.5991268    c-5.0538063,1.155407-11.6826782,0.1021996-16.872261,0.1120987c-5.9070168,0.0112686-12.8223753,0.9970169-18.6223297-0.0239677    c-1.9274392-0.3392944-4.0310364-0.5958138-5.1712217-2.7036858c-0.4543288-0.83992-0.0242445-3.8350372-0.0297177-4.9294567    c-0.0147915-2.9576931-0.0240953-5.9154129-0.0274897-8.8731422c-0.0037715-3.2863617-0.0005076-6.5727386,0.0097914-9.859087    C3.7764943,8.6416502,3.5689116,7.165359,3.7883294,5.9426994C4.2545199,3.344949,4.478447,3.1702504,7.3967533,3.1942129    c1.4481821,0.0118911,1.4495535-2.2380977,0-2.25C0.49389,0.8875329,1.5425783,3.5093408,1.5225935,9.8863068    c-0.0144187,4.6008911-0.0150483,9.2018242-0.0018888,13.8027191c0.0094881,3.3172874-0.9314012,8.3649406,0.1723324,11.5026245    c1.9226812,5.4657745,10.7154579,3.3267632,15.1391525,3.3347321c9.1841602,0.0165482,18.4806232,0.3509483,27.6536312-0.1128349    c6.9082184-0.3492737,5.6752396-4.3269272,5.7253876-10.3121281c0.0374565-4.4702415,0.0749092-8.9404831,0.1123657-13.4107256    c0.0267792-3.1961851,1.1638908-8.6700306-0.0095673-11.6372557c-0.6032486-1.5253756-0.9970894-1.6784316-2.6128998-1.9901872    c-4.0048866-0.7727057-8.8274841-0.1187359-12.9134369-0.1505181c-9.4914017-0.0738279-18.9829826-0.092294-28.474617-0.0657777    C4.8654704,0.8509994,4.8627234,3.101007,6.3130527,3.0969553L6.3130527,3.0969553z"/></g><g><path class="st0" d="M34.0908127,8.9601049c1.7289276,0.3083887,2.5821457,1.5607166,3.0773849,3.1508026    c0.2619133-0.4612951,0.5238266-0.9225893,0.7857437-1.3838835c-2.9696617,1.2038965-5.6199684,2.9425049-8.5472393,4.2040691    c0.56427,0.323801,1.12854,0.647603,1.6928101,0.9714041c-0.2619247-3.2052336,2.6807117-4.5031414,3.8712139-7.1483955    c0.5894852-1.3098121-1.3488884-2.455286-1.9428101-1.1356177c-0.712719,1.5836444-1.9936466,2.4429507-2.9758949,3.799315    c-0.9501667,1.3120613-1.3335133,2.8815689-1.2025089,4.4846983c0.0744839,0.9114866,0.8845444,1.3197432,1.6928082,0.9714041    c2.7508659-1.1855383,5.2204399-2.8464642,8.009758-3.9772501c0.5486717-0.2224302,0.9837914-0.7480001,0.7857475-1.3838835    c-0.7128029-2.2886353-2.1645584-4.2791638-4.6488762-4.7222905C33.2730522,6.5379238,32.6654282,8.7058601,34.0908127,8.9601049    L34.0908127,8.9601049z"/></g><g><path class="st0" d="M32.5300522,17.5714321c0.1970253,4.6630611,2.324749,10.1077423-3.7659092,12.1277943    c-2.5831394,0.8567352-5.7463932,1.0412178-8.1045475-0.2032623c-2.2970905-1.2122536-4.7491121-3.9448738-5.0072889-6.696722    c-0.4523411-4.8213882,3.1307764-10.3809776,8.5354433-10.2971516c3.854147,0.0597782,2.0498161,2.4351234,0.8293495,4.3211708    c-0.8743534,1.3511829-1.6182785,2.6525326-2.2090836,4.1431236c-0.3241634,0.8178577,0.6249008,1.6018257,1.3838825,1.3838844    c3.5098419-1.0078506,6.7798672-2.4035721,9.9337807-4.242485c1.2503128-0.7290039,0.1190338-2.6743422-1.1356201-1.9428082    c-2.9899368,1.7433052-6.0696564,3.0604191-9.3962994,4.0156651c0.4612942,0.4612942,0.9225903,0.9225883,1.3838844,1.3838825    c1.6233521-4.0956898,9.1721897-12.1593828-0.2921124-11.4282141c-3.4115543,0.2635612-6.4709301,2.0089579-8.924345,4.329546    c-2.5473852,2.4094706-2.4783306,4.9558344-2.35888,8.3333864c0.1088772,3.0785904,2.5268526,6.3352127,4.8305216,8.2909641    c2.3636532,2.0066757,5.5512409,1.6597176,8.4251194,1.2644806c3.361927-0.4623566,6.1742325-1.4595203,7.8314362-4.6035938    c1.8341331-3.4797401,0.4455948-6.5129719,0.2906685-10.1796608    C34.719101,16.1288757,32.4687767,16.1212101,32.5300522,17.5714321L32.5300522,17.5714321z"/></g><g><path class="st0" d="M24.8250523,38.062458c0.0355568,4.0554848,0.0711117,8.1109734,0.1066666,12.1664619    c0.0126877,1.4471092,2.2627182,1.4506035,2.25,0c-0.0355549-4.0554886-0.0711098-8.1109772-0.1066666-12.1664619    C27.0623665,36.6153488,24.812336,36.6118546,24.8250523,38.062458L24.8250523,38.062458z"/></g><g><path class="st0" d="M30.3874054,38.5596657c2.5555153,3.7352219,5.1110306,7.4704475,7.6665459,11.2056694    c0.8126869,1.187851,2.7633209,0.0636673,1.9428101-1.1356201c-2.5555153-3.7352219-5.1110306-7.4704437-7.6665459-11.2056656    C31.5175266,36.2361946,29.5668945,37.3603821,30.3874054,38.5596657L30.3874054,38.5596657z"/></g><g><path class="st0" d="M19.9308033,37.4311562c-1.649374,2.1124878-3.3041191,4.2209129-4.948184,6.3375359    c-1.4115496,1.8172722-2.1454687,3.7812881-3.2818193,5.7438698c-0.7269163,1.2554474,1.2167206,2.389637,1.9428091,1.1356163    c1.196804-2.0669899,1.9911938-4.0653572,3.4797983-5.9926682c1.4561977-1.8853493,2.9323273-3.7556648,4.3983879-5.6333618    C22.4027176,37.8938789,20.8213882,36.2905159,19.9308033,37.4311562L19.9308033,37.4311562z"/></g><g><path class="st0" d="M19.8403015,37.6052513c-0.0675468,0.198494-0.1562767,0.3648682-0.2648754,0.5451584    c-0.7490215,1.2434921,1.195734,2.3758812,1.9428082,1.1356201c0.2056618-0.3414268,0.3633251-0.70541,0.4916954-1.0826378    c0.1957207-0.5751495-0.2247181-1.2297325-0.7857456-1.3838844C20.607996,36.6501961,20.0367432,37.0279846,19.8403015,37.6052513    L19.8403015,37.6052513z"/></g></g></svg>