<?xml version="1.0" ?><svg height="512" id="svg8" version="1.1" viewBox="0 0 135.46666 135.46667" width="512" xmlns="http://www.w3.org/2000/svg" xmlns:cc="http://creativecommons.org/ns#" xmlns:dc="http://purl.org/dc/elements/1.1/" xmlns:inkscape="http://www.inkscape.org/namespaces/inkscape" xmlns:rdf="http://www.w3.org/1999/02/22-rdf-syntax-ns#" xmlns:sodipodi="http://sodipodi.sourceforge.net/DTD/sodipodi-0.dtd" xmlns:svg="http://www.w3.org/2000/svg"><defs id="defs2"><marker id="marker3773" orient="auto" refX="0.0" refY="0.0" style="overflow:visible"><path d="M -2.5,-1.0 C -2.5,1.7600000 -4.7400000,4.0 -7.5,4.0 C -10.260000,4.0 -12.5,1.7600000 -12.5,-1.0 C -12.5,-3.7600000 -10.260000,-6.0 -7.5,-6.0 C -4.7400000,-6.0 -2.5,-3.7600000 -2.5,-1.0 z " id="path3771" style="fill-rule:evenodd;stroke:#000000;stroke-width:1pt;stroke-opacity:1;fill:#000000;fill-opacity:1" transform="scale(0.2) translate(7.4, 1)"/></marker><marker id="marker2116" orient="auto" refX="0.0" refY="0.0" style="overflow:visible"><path d="M -2.5,-1.0 C -2.5,1.7600000 -4.7400000,4.0 -7.5,4.0 C -10.260000,4.0 -12.5,1.7600000 -12.5,-1.0 C -12.5,-3.7600000 -10.260000,-6.0 -7.5,-6.0 C -4.7400000,-6.0 -2.5,-3.7600000 -2.5,-1.0 z " id="path2114" style="fill-rule:evenodd;stroke:#c2c2c2;stroke-width:1pt;stroke-opacity:1;fill:#c2c2c2;fill-opacity:1" transform="scale(0.4) translate(7.4, 1)"/></marker><marker id="TriangleInS" orient="auto" refX="0.0" refY="0.0" style="overflow:visible"><path d="M 5.77,0.0 L -2.88,5.0 L -2.88,-5.0 L 5.77,0.0 z " id="path1725" style="fill-rule:evenodd;stroke:#000000;stroke-width:1pt;stroke-opacity:1;fill:#000000;fill-opacity:1" transform="scale(-0.2)"/></marker><marker id="TriangleInM" orient="auto" refX="0.0" refY="0.0" style="overflow:visible"><path d="M 5.77,0.0 L -2.88,5.0 L -2.88,-5.0 L 5.77,0.0 z " id="path1722" style="fill-rule:evenodd;stroke:#000000;stroke-width:1pt;stroke-opacity:1;fill:#000000;fill-opacity:1" transform="scale(-0.4)"/></marker><marker id="TriangleOutM" orient="auto" refX="0.0" refY="0.0" style="overflow:visible"><path d="M 5.77,0.0 L -2.88,5.0 L -2.88,-5.0 L 5.77,0.0 z " id="path1731" style="fill-rule:evenodd;stroke:#000000;stroke-width:1pt;stroke-opacity:1;fill:#000000;fill-opacity:1" transform="scale(0.4)"/></marker><marker id="TriangleOutS" orient="auto" refX="0.0" refY="0.0" style="overflow:visible"><path d="M 5.77,0.0 L -2.88,5.0 L -2.88,-5.0 L 5.77,0.0 z " id="path1734" style="fill-rule:evenodd;stroke:#000000;stroke-width:1pt;stroke-opacity:1;fill:#000000;fill-opacity:1" transform="scale(0.2)"/></marker><marker id="TriangleInM-0" orient="auto" refX="0" refY="0" style="overflow:visible"><path d="M 5.77,0 -2.88,5 V -5 Z" id="path1722-5" style="fill:#000000;fill-opacity:1;fill-rule:evenodd;stroke:#000000;stroke-width:1pt;stroke-opacity:1" transform="scale(-0.4)"/></marker><marker id="TriangleOutM-4" orient="auto" refX="0" refY="0" style="overflow:visible"><path d="M 5.77,0 -2.88,5 V -5 Z" id="path1731-9" style="fill:#000000;fill-opacity:1;fill-rule:evenodd;stroke:#000000;stroke-width:1pt;stroke-opacity:1" transform="scale(0.4)"/></marker><marker id="TriangleInS-4" orient="auto" refX="0" refY="0" style="overflow:visible"><path d="M 5.77,0 -2.88,5 V -5 Z" id="path1725-6" style="fill:#333333;fill-opacity:1;fill-rule:evenodd;stroke:#333333;stroke-width:1pt;stroke-opacity:1" transform="scale(-0.2)"/></marker><marker id="TriangleOutS-8" orient="auto" refX="0" refY="0" style="overflow:visible"><path d="M 5.77,0 -2.88,5 V -5 Z" id="path1734-5" style="fill:#333333;fill-opacity:1;fill-rule:evenodd;stroke:#333333;stroke-width:1pt;stroke-opacity:1" transform="scale(0.2)"/></marker><marker id="TriangleInS-5" orient="auto" refX="0" refY="0" style="overflow:visible"><path d="M 5.77,0 -2.88,5 V -5 Z" id="path1725-1" style="fill:#757575;fill-opacity:1;fill-rule:evenodd;stroke:#757575;stroke-width:1pt;stroke-opacity:1" transform="scale(-0.2)"/></marker><marker id="TriangleOutS-2" orient="auto" refX="0" refY="0" style="overflow:visible"><path d="M 5.77,0 -2.88,5 V -5 Z" id="path1734-7" style="fill:#757575;fill-opacity:1;fill-rule:evenodd;stroke:#757575;stroke-width:1pt;stroke-opacity:1" transform="scale(0.2)"/></marker></defs><g id="layer1"><path d="M 311.86133 64 A 8.0007995 8.0007995 0 0 0 311.81055 64.001953 A 8.0007995 8.0007995 0 0 0 306.3418 66.341797 L 66.341797 306.3418 A 8.0007995 8.0007995 0 0 0 66.341797 317.6582 L 162.3418 413.6582 A 8.0007995 8.0007995 0 0 0 173.6582 413.6582 L 229.51367 357.80078 A 7.9999933 7.9999933 0 0 0 229.6582 357.66016 A 7.9999933 7.9999933 0 0 0 229.82422 357.49023 L 325.51367 261.80078 A 7.9999933 7.9999933 0 0 0 325.58594 261.73047 L 413.6582 173.6582 A 8.0007995 8.0007995 0 0 0 413.6582 162.3418 L 317.6582 66.341797 A 8.0007995 8.0007995 0 0 0 311.86133 64 z M 312.00391 83.3125 L 316.69141 88 L 88 316.69141 L 83.3125 312.00391 L 312.00391 83.3125 z M 328 99.308594 L 396.6875 167.99609 L 367.99805 196.68555 L 325.66016 154.33984 A 7.9999997 7.9999997 0 0 0 319.8125 152 A 7.9999997 7.9999997 0 0 0 314.34375 154.33984 A 7.9999997 7.9999997 0 0 0 314.34375 165.65625 L 356.68555 207.99805 L 320 244.68359 L 277.6543 202.3457 A 7.9999933 7.9999933 0 0 0 271.80859 200.00586 A 7.9999933 7.9999933 0 0 0 266.3457 202.3457 A 7.9999933 7.9999933 0 0 0 266.3457 213.6543 L 308.68555 255.99805 L 271.99609 292.6875 L 229.6582 250.3418 A 7.9999933 7.9999933 0 0 0 223.81055 248.00195 A 7.9999933 7.9999933 0 0 0 218.3418 250.3418 A 7.9999933 7.9999933 0 0 0 218.3418 261.6582 L 260.68555 303.99805 L 223.99805 340.68555 L 181.6543 298.3457 A 7.9999933 7.9999933 0 0 0 175.80664 295.99805 A 7.9999933 7.9999933 0 0 0 170.34375 298.3457 A 7.9999933 7.9999933 0 0 0 170.34375 309.65625 L 212.68359 352 L 167.99609 396.6875 L 99.308594 328 L 328 99.308594 z " id="path1200" style="color:#000000;font-style:normal;font-variant:normal;font-weight:normal;font-stretch:normal;font-size:medium;line-height:normal;font-family:sans-serif;font-variant-ligatures:normal;font-variant-position:normal;font-variant-caps:normal;font-variant-numeric:normal;font-variant-alternates:normal;font-variant-east-asian:normal;font-feature-settings:normal;font-variation-settings:normal;text-indent:0;text-align:start;text-decoration:none;text-decoration-line:none;text-decoration-style:solid;text-decoration-color:#000000;letter-spacing:normal;word-spacing:normal;text-transform:none;writing-mode:lr-tb;direction:ltr;text-orientation:mixed;dominant-baseline:auto;baseline-shift:baseline;text-anchor:start;white-space:normal;shape-padding:0;shape-margin:0;inline-size:0;clip-rule:nonzero;display:inline;overflow:visible;visibility:visible;opacity:1;isolation:auto;mix-blend-mode:normal;color-interpolation:sRGB;color-interpolation-filters:linearRGB;solid-color:#000000;solid-opacity:1;vector-effect:none;fill:#616161;fill-opacity:1;fill-rule:nonzero;stroke:none;stroke-width:16;stroke-linecap:round;stroke-linejoin:round;stroke-miterlimit:4;stroke-dasharray:none;stroke-dashoffset:0;stroke-opacity:1;color-rendering:auto;image-rendering:auto;shape-rendering:auto;text-rendering:auto;enable-background:accumulate;stop-color:#000000;stop-opacity:1" transform="scale(0.26458333)"/><path d="M 44.449219 114.30078 A 2.1166649 2.1166649 0 0 0 42.333984 116.41602 A 2.1166649 2.1166649 0 0 0 44.449219 118.5332 L 116.41602 118.5332 A 2.1166649 2.1166649 0 0 0 118.5332 116.41602 A 2.1166649 2.1166649 0 0 0 116.41602 114.30078 L 44.449219 114.30078 z " id="path1204" style="color:#000000;font-style:normal;font-variant:normal;font-weight:normal;font-stretch:normal;font-size:medium;line-height:normal;font-family:sans-serif;font-variant-ligatures:normal;font-variant-position:normal;font-variant-caps:normal;font-variant-numeric:normal;font-variant-alternates:normal;font-variant-east-asian:normal;font-feature-settings:normal;font-variation-settings:normal;text-indent:0;text-align:start;text-decoration:none;text-decoration-line:none;text-decoration-style:solid;text-decoration-color:#000000;letter-spacing:normal;word-spacing:normal;text-transform:none;writing-mode:lr-tb;direction:ltr;text-orientation:mixed;dominant-baseline:auto;baseline-shift:baseline;text-anchor:start;white-space:normal;shape-padding:0;shape-margin:0;inline-size:0;clip-rule:nonzero;display:inline;overflow:visible;visibility:visible;isolation:auto;mix-blend-mode:normal;color-interpolation:sRGB;color-interpolation-filters:linearRGB;solid-color:#000000;solid-opacity:1;vector-effect:none;fill:#fbc02d;fill-opacity:1;fill-rule:nonzero;stroke:none;stroke-width:4.23333;stroke-linecap:round;stroke-linejoin:miter;stroke-miterlimit:4;stroke-dasharray:none;stroke-dashoffset:0;stroke-opacity:1;color-rendering:auto;image-rendering:auto;shape-rendering:auto;text-rendering:auto;enable-background:accumulate;stop-color:#000000;stop-opacity:1;opacity:1"/><path d="M 344.00391 319.99805 A 7.9999997 7.9999997 0 0 0 336.00195 328 L 336.00195 375.99609 A 7.9999997 7.9999997 0 0 0 344.00391 383.99805 A 7.9999997 7.9999997 0 0 0 351.99805 375.99609 L 351.99805 360 L 432.00391 360 L 432.00391 375.99609 A 7.9999997 7.9999997 0 0 0 439.99805 383.99805 A 7.9999997 7.9999997 0 0 0 448 375.99609 L 448 351.99805 L 448 328 A 7.9999997 7.9999997 0 0 0 439.99805 319.99805 A 7.9999997 7.9999997 0 0 0 432.00391 328 L 432.00391 344.00391 L 351.99805 344.00391 L 351.99805 328 A 7.9999997 7.9999997 0 0 0 344.00391 319.99805 z " id="path1228" style="color:#000000;font-style:normal;font-variant:normal;font-weight:normal;font-stretch:normal;font-size:medium;line-height:normal;font-family:sans-serif;font-variant-ligatures:normal;font-variant-position:normal;font-variant-caps:normal;font-variant-numeric:normal;font-variant-alternates:normal;font-variant-east-asian:normal;font-feature-settings:normal;font-variation-settings:normal;text-indent:0;text-align:start;text-decoration:none;text-decoration-line:none;text-decoration-style:solid;text-decoration-color:#000000;letter-spacing:normal;word-spacing:normal;text-transform:none;writing-mode:lr-tb;direction:ltr;text-orientation:mixed;dominant-baseline:auto;baseline-shift:baseline;text-anchor:start;white-space:normal;shape-padding:0;shape-margin:0;inline-size:0;clip-rule:nonzero;display:inline;overflow:visible;visibility:visible;opacity:1;isolation:auto;mix-blend-mode:normal;color-interpolation:sRGB;color-interpolation-filters:linearRGB;solid-color:#000000;solid-opacity:1;vector-effect:none;fill:#00796b;fill-opacity:1;fill-rule:nonzero;stroke:none;stroke-width:16;stroke-linecap:round;stroke-linejoin:round;stroke-miterlimit:4;stroke-dasharray:none;stroke-dashoffset:0;stroke-opacity:1;color-rendering:auto;image-rendering:auto;shape-rendering:auto;text-rendering:auto;enable-background:accumulate;stop-color:#000000;stop-opacity:1" transform="scale(0.26458333)"/></g></svg>